# xmcd
#
# Track frame offsets:
#	150
#	19543
#	39346
#	54592
#	72456
#	90379
#	105202
#	125600
#	143632
#
# Disc length: 2128 seconds
#
# Revision: 1
# Processed by: cddbd v1.5.2PL0 Copyright (c) Steve Scherf et al.
# Submitted via: audiograbber 1.83.01
#
DISCID=6b084e09
DTITLE=Various Artist - CDX Volume 412 December 2006
DYEAR=2006
DGENRE=Country
TTITLE0=Alan Jackson - A Women"s Love
TTITLE1=Hank WIlliams Jr. - A Country Boy Can Survive (25th Anniversary Remix)
TTITLE2=Bomshel - Bomshel Stomp
TTITLE3=Emerson Drive - Moments
TTITLE4=Catherine Britt - What I Did Last Night
TTITLE5=Jeff Carson - When You Said You Loved Me
TTITLE6=Lacy Younger - But I miss You
TTITLE7=Burrito Deluxe - Discipler Of The Truth
TTITLE8=Randy Archer - Just As Crazy
EXTD=
EXTT0=
EXTT1=
EXTT2=
EXTT3=
EXTT4=
EXTT5=
EXTT6=
EXTT7=
EXTT8=
PLAYORDER=
